<svg xmlns="http://www.w3.org/2000/svg" viewBox="0 0 76.5 76.64"><defs><style>.cls-1{fill:#58595b;}.cls-2{fill:#53c4cd;}</style></defs><g id="Camada_2" data-name="Camada 2"><g id="Camada_1-2" data-name="Camada 1"><path class="cls-1" d="M61.52,61.55v3.3H61v-3.3H60v-.47h2.6v.47ZM66,64.85V62.13l-.9,1.79h-.49l-.9-1.79v2.72h-.51V61.08h.51l1.15,2.29L66,61.08h.5v3.77Z"/><path class="cls-2" d="M74.91,33.58c-3.08-3.85-10.19-6.93-19.11-8.77C53.23,10.36,46.51.05,38.56,0S23.89,10,21.07,24.16C4.81,26.87-3.76,33.63,1.59,40.32c3.05,3.81,10,6.86,18.78,8.71,2.16,15.9,9.23,27.56,17.69,27.61,2.95,0,5.75-1.38,8.24-3.88,7-7.69,9.43-19.05,10.26-27.22h0c.22-2.3.35-4.67.36-7.1q0-1.41,0-2.79h0s0-.06,0-.16h0a.45.45,0,0,1,0-.08l.35.16c3.14.81,5.45,1.89,6.48,3.18,1.54,1.92-.08,3.93-3.9,5.6-.19,1.63-.44,3.19-.77,4.7C72.93,46,79.85,39.76,74.91,33.58ZM33.22,9.37c3.49,0,6.49,5.55,8,13.68a100.4,100.4,0,0,0-13.85.3l-2.46.26C26.49,15.14,29.64,9.35,33.22,9.37Zm8.93,29.82c-.37,7.89-1.57,11.3-1.75,11.78h0c-1.72,6.53-4.47,10.76-7.53,10.74-1.54,0-3-1.08-4.24-3-2.85-4.18-3.87-11.26-3.87-11.26A45.53,45.53,0,0,1,20,46.54l-1.16-.38c-2.48-.76-4.31-1.71-5.19-2.81-1.62-2,.24-4.14,4.5-5.86.9-.38,1.56-.6,1.56-.6a68.63,68.63,0,0,1,22.53-3v.83c0,.29,0,.57,0,.85C42.26,36.82,42.22,38,42.15,39.19Z"/></g></g></svg>